<svg width="460" height="322" viewBox="0 0 460 322" fill="none" xmlns="http://www.w3.org/2000/svg">
<path d="M313.45 259.16C310.27 255.31 308.02 250.67 306.76 245.36C305.72 244.24 304.63 243.16 303.51 242.13C302.28 241.01 301.37 240.2 300.54 239.56C299.81 239.59 299.14 239.78 298.54 240.13C298.36 240.24 298.18 240.36 298.01 240.5C298.54 240.92 298.92 241.52 299.01 242.24C299.21 243.69 298.18 245.02 296.73 245.22C295.28 245.42 293.95 244.4 293.75 242.95C293.55 241.5 294.57 240.16 296.02 239.97C296.58 239.9 297.12 240 297.58 240.24C297.8 240.05 298.04 239.88 298.29 239.73C298.8 239.43 299.36 239.24 299.96 239.15C299.32 238.71 298.69 238.36 297.96 238.06C296.79 237.57 295.54 237.27 294.23 237.16C294.11 238.35 293.19 239.35 291.95 239.52C290.5 239.72 289.17 238.7 288.97 237.25C288.77 235.8 289.79 234.46 291.24 234.27C292.69 234.07 294.03 235.1 294.22 236.55C294.23 236.6 294.23 236.65 294.23 236.71C295.6 236.82 296.91 237.13 298.13 237.65C300.1 238.47 301.45 239.67 303.59 241.62C303.43 241.15 303.31 240.67 303.21 240.19C303.11 239.7 303.04 239.2 303 238.69C302.87 238.73 302.74 238.76 302.57 238.78C301.14 238.96 299.81 237.94 299.62 236.5C299.43 235.06 300.45 233.72 301.89 233.52C303.34 233.32 304.68 234.35 304.87 235.79C305.02 236.93 304.42 238.01 303.44 238.51C303.47 239.04 303.55 239.57 303.65 240.09C303.8 240.84 304.02 241.58 304.3 242.29C305.06 243 305.81 243.73 306.52 244.49C304.94 237.18 305.68 234.32 305.71 234.21C305.75 234.03 305.8 233.85 305.84 233.67C305.92 233.31 305.99 232.94 306.04 232.58C305.35 231.35 304.5 230.62 304.09 230.31C303.68 230.81 303.08 231.17 302.39 231.26C300.94 231.46 299.61 230.43 299.41 228.99C299.21 227.54 300.23 226.2 301.68 226.01C303.13 225.81 304.47 226.84 304.66 228.29C304.74 228.88 304.62 229.45 304.34 229.93C304.72 230.2 305.46 230.83 306.14 231.86C306.22 231.27 306.27 230.69 306.3 230.1C306.33 229.41 306.33 228.72 306.3 228.03C306.29 227.82 306.28 227.61 306.26 227.4L301.91 224C301.53 224.76 300.79 225.33 299.89 225.45C298.44 225.65 297.11 224.63 296.91 223.18C296.72 221.73 297.73 220.39 299.18 220.2C300.63 220 301.97 221.03 302.16 222.48C302.21 222.85 302.18 223.22 302.08 223.56L306.2 226.78C306.05 225.42 305.78 224.08 305.39 222.76C305.26 222.81 305.12 222.83 304.98 222.85C303.53 223.05 302.2 222.02 302 220.57C301.88 219.65 302.24 218.78 302.89 218.22L296.58 212.63C296.45 212.6 296.32 212.58 296.18 212.56C295.55 212.47 294.91 212.46 294.28 212.54C294.35 213.9 293.36 215.1 291.99 215.29C290.54 215.49 289.21 214.47 289.01 213.02C288.82 211.57 289.83 210.23 291.28 210.04C292.65 209.86 293.92 210.76 294.22 212.09C294.79 212.02 295.37 212.01 295.95 212.08L291.07 207.75C290.82 207.7 290.57 207.68 290.32 207.67C289.87 207.64 289.41 207.66 288.97 207.72C289.04 209.08 288.05 210.29 286.68 210.47C285.23 210.67 283.89 209.64 283.7 208.19C283.51 206.74 284.53 205.41 285.98 205.21C287.35 205.03 288.62 205.93 288.91 207.26C289.39 207.2 289.87 207.18 290.35 207.21C290.39 207.21 290.43 207.21 290.47 207.22L286.32 203.54C285.93 203.93 285.41 204.2 284.82 204.28C283.37 204.48 282.03 203.45 281.84 202C281.65 200.56 282.67 199.22 284.12 199.02C285.57 198.82 286.9 199.85 287.1 201.29C287.19 201.98 287 202.65 286.63 203.18L293.96 209.68C293.89 209.5 293.83 209.31 293.77 209.13C293.6 208.57 293.46 207.99 293.37 207.4C292.12 207.34 291.04 206.39 290.87 205.11C290.68 203.67 291.7 202.33 293.14 202.13C294.59 201.93 295.93 202.96 296.12 204.4C296.32 205.85 295.29 207.19 293.83 207.39C293.92 207.94 294.05 208.48 294.21 209C294.35 209.46 294.52 209.92 294.72 210.36L300.98 215.91C300.9 215.46 300.85 215.01 300.84 214.57C300.83 214.15 300.84 213.74 300.89 213.33C299.76 213.15 298.84 212.26 298.68 211.07C298.49 209.62 299.5 208.29 300.95 208.09C302.4 207.89 303.74 208.91 303.93 210.36C304.12 211.81 303.1 213.15 301.65 213.34C301.55 213.35 301.44 213.36 301.34 213.36C301.3 213.76 301.28 214.16 301.3 214.55C301.32 215.18 301.4 215.81 301.56 216.43L303.28 217.95C303.58 217.78 303.92 217.65 304.29 217.6C305.74 217.4 307.08 218.43 307.27 219.87C307.42 221.02 306.81 222.1 305.83 222.59C306.36 224.36 306.68 226.19 306.77 228.02C306.82 229.14 306.8 230.26 306.68 231.38C306.66 231.55 306.65 231.71 306.63 231.88C306.61 232.08 306.59 232.27 306.57 232.47C306.53 232.8 306.47 233.14 306.38 233.51C306.36 233.59 306.34 233.67 306.32 233.75C306.27 233.95 306.22 234.15 306.17 234.35C306.17 234.35 306.15 234.45 306.11 234.63C306.11 234.64 306.11 234.65 306.1 234.66C306 235.34 305.83 237.18 306.28 240.52C307.04 238.66 308.02 237.79 308.58 237.43C308.18 237.03 307.91 236.51 307.83 235.92C307.63 234.47 308.65 233.14 310.1 232.94C311.55 232.74 312.89 233.76 313.08 235.21C313.27 236.66 312.25 238 310.8 238.19C310.12 238.28 309.47 238.11 308.94 237.74C308.44 238.04 307.22 238.98 306.41 241.47C306.58 242.56 306.81 243.79 307.13 245.16C307.13 245.18 307.14 245.2 307.14 245.22C308.39 250.48 310.6 255.07 313.74 258.88" fill="#F1E2C5"/>
<path d="M17.78 205.26C17.78 207.21 17.78 209.15 17.78 211.1C17.77 227.3 17.76 243.51 17.76 259.71C17.76 267.71 19.05 269.03 27.17 269.52C27.96 269.57 28.74 269.76 29.51 270.66C20.37 270.66 11.23 270.66 2.07999 270.66C2.04999 270.39 2.02 270.12 2 269.85C2.93 269.73 3.85998 269.56 4.78998 269.5C11.88 269.05 13.71 267.29 13.88 260.15C14.04 253.65 13.93 247.14 13.93 240.64C13.94 228.81 13.95 216.99 13.94 205.16C13.94 203.74 13.91 202.32 13.76 200.91C13.18 195.68 11.76 194.23 6.51999 193.38C5.09999 193.15 3.65999 192.96 2.23999 192.74C2.25999 192.44 2.29 192.13 2.31 191.83C8.47 191.83 14.64 191.74 20.79 191.95C21.52 191.97 22.43 193.48 22.86 194.46C31.43 214.44 39.94 234.44 48.47 254.44C49.01 255.71 49.62 256.94 50.52 258.91C54.26 249.98 57.69 241.78 61.12 233.58C66.7 220.28 72.26 206.98 77.91 193.72C78.26 192.91 79.34 191.88 80.11 191.86C86.1 191.71 92.09 191.77 98.08 191.77C98.13 192.06 98.17 192.34 98.22 192.63C96.74 192.92 95.26 193.21 93.78 193.48C88.66 194.42 86.89 196.32 86.74 201.58C86.59 207.02 86.66 212.46 86.65 217.9C86.64 231.74 86.64 245.58 86.63 259.41C86.63 267.75 87.77 268.96 96.15 269.49C96.93 269.54 97.71 269.76 98.46 270.67C87.85 270.67 77.23 270.67 66.62 270.67C66.57 270.43 66.51 270.2 66.46 269.96C68.02 269.74 69.58 269.52 71.14 269.31C76.42 268.61 78.27 267.1 78.31 261.93C78.47 242.67 78.37 223.42 77.64 203.85C67.99 226.78 58.34 249.71 48.69 272.65C48.15 272.64 47.62 272.64 47.08 272.63C37.55 250.13 28.02 227.64 18.49 205.14C18.27 205.19 18.02 205.23 17.78 205.26Z" fill="#F1E2C5"/>
<path d="M136.65 270.87C126.15 270.87 115.66 270.87 105.16 270.87C105.11 270.58 105.05 270.3 105 270.01C106.09 269.81 107.17 269.48 108.27 269.42C114.9 269.04 116.83 267.44 116.89 260.83C117.06 241.12 117.09 221.41 116.94 201.69C116.89 194.74 115.21 193.38 108.18 192.82C107.27 192.75 106.37 192.58 105.5 191.75C115.81 191.75 126.11 191.75 136.42 191.75C136.44 191.98 136.46 192.2 136.48 192.42C134.55 192.67 132.63 193 130.7 193.15C127.06 193.44 125.51 195.68 125.32 199.03C125.14 202.23 125.14 205.44 125.15 208.64C125.17 226.21 125.17 243.79 125.27 261.36C125.3 267.41 126.98 269 133.1 269.36C134.32 269.43 135.53 269.54 136.74 269.64C136.69 270.06 136.67 270.47 136.65 270.87Z" fill="#F1E2C5"/>
<path d="M159.02 205.26C159.02 207.21 159.02 209.15 159.02 211.1C159.01 227.3 159 243.51 159 259.71C159 267.71 160.29 269.03 168.41 269.52C169.2 269.57 169.98 269.76 170.75 270.66C161.61 270.66 152.47 270.66 143.32 270.66C143.29 270.39 143.26 270.12 143.24 269.85C144.17 269.73 145.1 269.56 146.03 269.5C153.12 269.05 154.95 267.29 155.12 260.15C155.28 253.65 155.17 247.14 155.17 240.64C155.18 228.81 155.19 216.99 155.18 205.16C155.18 203.74 155.15 202.32 155 200.91C154.42 195.68 153 194.23 147.76 193.38C146.34 193.15 144.9 192.96 143.48 192.74C143.5 192.44 143.53 192.13 143.55 191.83C149.71 191.83 155.88 191.74 162.03 191.95C162.76 191.97 163.67 193.48 164.1 194.46C172.67 214.44 181.18 234.44 189.71 254.44C190.25 255.71 190.86 256.94 191.76 258.91C195.5 249.98 198.93 241.78 202.36 233.58C207.94 220.28 213.5 206.98 219.15 193.72C219.5 192.91 220.58 191.88 221.35 191.86C227.34 191.71 233.33 191.77 239.32 191.77C239.37 192.06 239.41 192.34 239.46 192.63C237.98 192.92 236.5 193.21 235.02 193.48C229.9 194.42 228.13 196.32 227.98 201.58C227.83 207.02 227.9 212.46 227.89 217.9C227.88 231.74 227.88 245.58 227.87 259.41C227.87 267.75 229.01 268.96 237.39 269.49C238.17 269.54 238.95 269.76 239.7 270.67C229.09 270.67 218.47 270.67 207.86 270.67C207.81 270.43 207.75 270.2 207.7 269.96C209.26 269.74 210.82 269.52 212.38 269.31C217.66 268.61 219.51 267.1 219.55 261.93C219.71 242.67 219.61 223.42 218.88 203.85C209.23 226.78 199.58 249.71 189.93 272.65C189.39 272.64 188.86 272.64 188.32 272.63C178.79 250.13 169.26 227.64 159.73 205.14C159.51 205.19 159.26 205.23 159.02 205.26Z" fill="#F1E2C5"/>
<path d="M285.25 270.87C262.66 270.89 246.4 254.45 246.39 231.58C246.39 209.27 263 192.11 284.58 192.11C307.73 192.12 324.31 208.53 324.31 231.43C324.32 254.49 308.11 270.85 285.25 270.87ZM256.02 232.47C255.96 240.07 257.61 248.08 262.44 255.45C272.57 270.89 297.05 271.68 307.22 256.23C317.52 240.58 317.43 223.86 307.96 208.03C298.46 192.14 276.74 190.93 264.55 204.97C257.92 212.61 255.94 221.83 256.02 232.47Z" fill="#F1E2C5"/>
<path d="M336.66 238.63C336.73 239.74 336.81 240.85 336.86 241.97C337.05 246.47 336.69 251.06 337.52 255.45C339.01 263.33 343.12 266.33 352.72 267.42C355.05 267.69 357.46 267.69 359.79 267.44C367.97 266.56 372.78 263.01 374.25 257C376.23 248.88 373.84 242.31 366.79 238.17C362.69 235.76 358.11 234.11 353.82 231.98C349.02 229.59 343.9 227.54 339.63 224.45C329.7 217.27 329.36 202.23 338.7 195.92C344.73 191.85 351.75 191.31 358.77 192.02C364.5 192.6 370.16 193.87 375.8 195.08C376.8 195.3 378.37 196.85 378.25 197.56C376.92 205.19 375.31 212.77 373.77 220.36C373.37 220.35 372.98 220.33 372.58 220.32C372.58 219.13 372.63 217.94 372.57 216.76C372.38 212.95 372.63 209.04 371.82 205.35C370.88 201.07 367.98 197.53 363.33 196.64C358.79 195.77 353.96 195.28 349.4 195.77C343.73 196.38 340.15 200.12 339.13 205.59C338.14 210.86 339.99 215.42 344.62 218.28C349.15 221.07 354.13 223.25 359.04 225.44C365.16 228.17 371.49 230.57 376.08 235.53C382.5 242.45 383.61 250.6 380.43 259.01C377.28 267.32 369.65 270.03 361.24 270.69C351.6 271.44 342.13 270.01 332.95 267.15C332.01 266.86 330.74 265.24 330.87 264.42C332.21 256.05 333.81 247.71 335.37 239.37C335.43 239.07 335.75 238.81 335.95 238.54C336.17 238.56 336.41 238.6 336.66 238.63Z" fill="#F1E2C5"/>
<path d="M457.4 270.74C449.41 270.74 442.4 270.74 435.39 270.74C435.34 270.42 435.29 270.09 435.25 269.77C436.57 269.57 437.89 269.31 439.22 269.2C445.21 268.7 446.7 266.43 444.65 260.74C443.17 256.63 441.76 252.48 439.96 248.5C439.44 247.35 437.7 246.05 436.49 246.02C428.69 245.79 420.89 245.91 413.08 245.85C411.08 245.83 409.79 246.39 409.12 248.5C407.62 253.23 405.74 257.84 404.32 262.58C402.94 267.19 404.29 268.85 409.17 269.21C410.17 269.28 411.16 269.42 412.16 269.53C412.15 269.84 412.14 270.15 412.13 270.46C404.42 270.46 396.71 270.46 389 270.46C388.95 270.2 388.91 269.95 388.86 269.69C389.78 269.53 390.69 269.25 391.61 269.23C396.13 269.11 399.16 267.05 400.7 262.71C405.42 249.35 410.22 236.02 414.97 222.67C418.21 213.55 421.39 204.41 424.62 195.28C425.07 194 425.69 192.77 426.23 191.52C426.66 191.46 427.09 191.41 427.52 191.35C437.38 217.59 447.26 243.82 457.4 270.74ZM424.88 206.7C424.57 206.67 424.25 206.64 423.94 206.61C419.8 218.49 415.66 230.36 411.44 242.44C420.71 242.44 429.34 242.44 438.13 242.44C433.63 230.28 429.25 218.49 424.88 206.7Z" fill="#F1E2C5"/>
<path d="M146.22 321.54C144.54 321.54 143.12 321.23 141.95 320.62C140.78 320.01 139.89 319.07 139.27 317.81C138.65 316.55 138.35 314.96 138.35 313.02C138.35 310.16 139.05 308.02 140.44 306.61C141.83 305.2 143.77 304.5 146.25 304.5C147.66 304.5 148.91 304.73 149.99 305.18C151.08 305.64 151.93 306.32 152.55 307.24C153.17 308.16 153.47 309.32 153.47 310.71H151.17C151.17 309.75 150.97 308.96 150.56 308.33C150.15 307.7 149.58 307.24 148.84 306.93C148.1 306.62 147.24 306.46 146.25 306.46C145.1 306.46 144.11 306.68 143.27 307.13C142.44 307.58 141.81 308.27 141.37 309.21C140.94 310.15 140.72 311.35 140.72 312.82V313.32C140.72 314.78 140.94 315.96 141.37 316.88C141.8 317.8 142.43 318.48 143.25 318.91C144.07 319.34 145.07 319.56 146.24 319.56C147.26 319.56 148.15 319.41 148.89 319.1C149.63 318.8 150.21 318.33 150.62 317.7C151.03 317.07 151.23 316.27 151.23 315.31H153.46C153.46 316.73 153.14 317.9 152.51 318.81C151.88 319.72 151.02 320.4 149.93 320.85C148.85 321.31 147.61 321.54 146.22 321.54Z" fill="#F1E2C5"/>
<path d="M154.76 321.25L161.26 304.79H164.26L170.79 321.25H168.32L166.71 317.17H158.69L157.11 321.25H154.76ZM159.44 315.23H165.94L163.95 310.07C163.9 309.93 163.83 309.73 163.73 309.47C163.63 309.21 163.53 308.93 163.42 308.62C163.31 308.31 163.2 307.99 163.08 307.66C162.97 307.33 162.86 307.03 162.77 306.76H162.63C162.52 307.08 162.39 307.45 162.25 307.86C162.11 308.28 161.96 308.68 161.82 309.07C161.68 309.46 161.56 309.79 161.46 310.07L159.44 315.23Z" fill="#F1E2C5"/>
<path d="M179.07 321.54C178.17 321.54 177.31 321.45 176.49 321.28C175.67 321.1 174.93 320.82 174.29 320.43C173.65 320.04 173.14 319.53 172.77 318.91C172.4 318.29 172.21 317.52 172.21 316.61C172.21 316.53 172.21 316.45 172.22 316.37C172.23 316.29 172.23 316.21 172.23 316.13H174.53C174.53 316.18 174.53 316.25 174.52 316.36C174.51 316.46 174.51 316.56 174.51 316.64C174.51 317.28 174.7 317.82 175.09 318.27C175.47 318.72 176.01 319.05 176.69 319.27C177.37 319.49 178.14 319.59 179.01 319.59C179.39 319.59 179.8 319.57 180.22 319.52C180.64 319.47 181.05 319.39 181.44 319.27C181.83 319.15 182.18 318.99 182.5 318.79C182.81 318.59 183.06 318.34 183.24 318.05C183.42 317.75 183.52 317.39 183.52 316.96C183.52 316.42 183.36 315.96 183.05 315.6C182.74 315.24 182.33 314.94 181.81 314.71C181.3 314.48 180.72 314.27 180.07 314.09C179.42 313.91 178.75 313.73 178.07 313.55C177.38 313.37 176.71 313.17 176.07 312.94C175.42 312.71 174.84 312.42 174.33 312.08C173.82 311.74 173.41 311.31 173.09 310.8C172.78 310.29 172.62 309.66 172.62 308.93C172.62 308.24 172.76 307.63 173.04 307.08C173.32 306.54 173.74 306.08 174.29 305.7C174.84 305.32 175.53 305.04 176.34 304.84C177.15 304.64 178.09 304.54 179.15 304.54C180.01 304.54 180.82 304.63 181.56 304.82C182.3 305 182.96 305.28 183.53 305.66C184.1 306.04 184.54 306.51 184.86 307.09C185.18 307.67 185.34 308.36 185.34 309.18V309.47H183.08V309.11C183.08 308.57 182.91 308.1 182.58 307.72C182.25 307.34 181.78 307.04 181.2 306.83C180.62 306.62 179.96 306.52 179.22 306.52C178.26 306.52 177.46 306.61 176.82 306.8C176.18 306.98 175.7 307.25 175.39 307.59C175.08 307.93 174.92 308.32 174.92 308.75C174.92 309.25 175.08 309.66 175.39 310C175.7 310.34 176.11 310.61 176.63 310.83C177.14 311.05 177.73 311.24 178.38 311.42C179.03 311.6 179.7 311.78 180.38 311.96C181.06 312.14 181.72 312.35 182.37 312.58C183.02 312.81 183.6 313.1 184.12 313.44C184.64 313.78 185.05 314.22 185.36 314.74C185.66 315.26 185.82 315.9 185.82 316.65C185.82 317.82 185.53 318.77 184.96 319.49C184.38 320.22 183.59 320.75 182.58 321.09C181.57 321.43 180.4 321.54 179.07 321.54Z" fill="#F1E2C5"/>
<path d="M187.28 321.25L193.78 304.79H196.78L203.31 321.25H200.84L199.23 317.17H191.21L189.63 321.25H187.28ZM191.96 315.23H198.46L196.47 310.07C196.42 309.93 196.35 309.73 196.25 309.47C196.15 309.21 196.05 308.93 195.94 308.62C195.83 308.31 195.72 307.99 195.6 307.66C195.49 307.33 195.38 307.03 195.29 306.76H195.15C195.04 307.08 194.91 307.45 194.77 307.86C194.63 308.28 194.48 308.68 194.34 309.07C194.2 309.46 194.08 309.79 193.98 310.07L191.96 315.23Z" fill="#F1E2C5"/>
<path d="M214.88 321.25L208.74 304.79H211.21L215.43 316.45C215.53 316.67 215.62 316.93 215.72 317.22C215.82 317.51 215.91 317.79 216.01 318.06C216.11 318.33 216.19 318.57 216.27 318.78H216.41C216.47 318.59 216.55 318.36 216.65 318.08C216.75 317.81 216.84 317.53 216.94 317.25C217.04 316.97 217.13 316.7 217.23 316.45L221.41 304.79H223.81L217.64 321.25H214.88Z" fill="#F1E2C5"/>
<path d="M223.54 321.25L230.04 304.79H233.04L239.57 321.25H237.1L235.49 317.17H227.47L225.89 321.25H223.54ZM228.22 315.23H234.72L232.73 310.07C232.68 309.93 232.61 309.73 232.51 309.47C232.41 309.21 232.31 308.93 232.2 308.62C232.09 308.31 231.98 307.99 231.86 307.66C231.75 307.33 231.64 307.03 231.55 306.76H231.41C231.3 307.08 231.17 307.45 231.03 307.86C230.89 308.28 230.74 308.68 230.6 309.07C230.46 309.46 230.34 309.79 230.24 310.07L228.22 315.23Z" fill="#F1E2C5"/>
<path d="M248.53 321.54C246.85 321.54 245.43 321.23 244.26 320.62C243.09 320.01 242.2 319.07 241.58 317.81C240.96 316.55 240.66 314.96 240.66 313.02C240.66 310.16 241.36 308.02 242.75 306.61C244.14 305.2 246.08 304.5 248.56 304.5C249.97 304.5 251.22 304.73 252.3 305.18C253.39 305.64 254.24 306.32 254.86 307.24C255.48 308.16 255.78 309.32 255.78 310.71H253.48C253.48 309.75 253.28 308.96 252.87 308.33C252.46 307.7 251.89 307.24 251.15 306.93C250.41 306.62 249.55 306.46 248.56 306.46C247.41 306.46 246.42 306.68 245.58 307.13C244.75 307.58 244.12 308.27 243.68 309.21C243.25 310.15 243.03 311.35 243.03 312.82V313.32C243.03 314.78 243.25 315.96 243.68 316.88C244.11 317.8 244.74 318.48 245.56 318.91C246.38 319.34 247.38 319.56 248.55 319.56C249.57 319.56 250.46 319.41 251.2 319.1C251.94 318.8 252.52 318.33 252.93 317.7C253.34 317.07 253.54 316.27 253.54 315.31H255.77C255.77 316.73 255.45 317.9 254.82 318.81C254.19 319.72 253.33 320.4 252.24 320.85C251.16 321.31 249.92 321.54 248.53 321.54Z" fill="#F1E2C5"/>
<path d="M257.07 321.25L263.57 304.79H266.57L273.1 321.25H270.63L269.02 317.17H261L259.42 321.25H257.07ZM261.75 315.23H268.25L266.26 310.07C266.21 309.93 266.14 309.73 266.04 309.47C265.94 309.21 265.84 308.93 265.73 308.62C265.62 308.31 265.51 307.99 265.39 307.66C265.28 307.33 265.17 307.03 265.08 306.76H264.94C264.83 307.08 264.7 307.45 264.56 307.86C264.42 308.28 264.27 308.68 264.13 309.07C263.99 309.46 263.87 309.79 263.77 310.07L261.75 315.23Z" fill="#F1E2C5"/>
<path d="M275.34 321.25V304.79H277.55L285.54 315.64C285.62 315.74 285.72 315.88 285.85 316.07C285.98 316.26 286.11 316.45 286.23 316.63C286.36 316.81 286.46 316.98 286.54 317.12H286.64C286.64 316.86 286.64 316.61 286.64 316.36C286.64 316.11 286.64 315.87 286.64 315.63V304.78H288.87V321.24H286.78L278.69 310.2C278.58 310.02 278.41 309.78 278.2 309.46C277.98 309.14 277.8 308.88 277.66 308.69H277.54C277.54 308.95 277.54 309.2 277.54 309.45C277.54 309.7 277.54 309.95 277.54 310.21V321.25H275.34Z" fill="#F1E2C5"/>
<path d="M291.7 321.25V320.07L301.68 306.75H292.32V304.78H305.06V305.96L295.05 319.28H305.27V321.25H291.7Z" fill="#F1E2C5"/>
<path d="M308.24 321.25V304.79H320.91V306.76H310.52V311.85H319.86V313.82H310.52V319.29H321.06V321.26H308.24V321.25Z" fill="#F1E2C5"/>
<path d="M46.2998 284.6V313.02H124.41" stroke="#F1E2C5" stroke-miterlimit="10"/>
<path d="M46.3 177.24V142.89H2.31006L229.93 1L457.54 142.89H413.55V177.24" stroke="#F1E2C5" stroke-miterlimit="10"/>
<path d="M413.18 284.6V313.02H335.08" stroke="#F1E2C5" stroke-miterlimit="10"/>
<path d="M245.55 121.89H231.84V135.6H245.55V121.89Z" fill="#F1E2C5"/>
<path d="M245.55 104.89H231.84V118.6H245.55V104.89Z" fill="#F1E2C5"/>
<path d="M227.55 121.89H213.84V135.6H227.55V121.89Z" fill="#F1E2C5"/>
<path d="M227.55 104.89H213.84V118.6H227.55V104.89Z" fill="#F1E2C5"/>
</svg>
